<svg xmlns="http://www.w3.org/2000/svg" width="80" height="80"><defs><linearGradient id="a" x1="0" y1="-1356.007" x2="80" y2="-1356.007" gradientTransform="matrix(1 0 0 -1 0 -1316)" gradientUnits="userSpaceOnUse"><stop offset="0" stop-color="#1d5da5"/><stop offset="1" stop-color="#29c2ef"/></linearGradient></defs><circle cx="39.978" cy="40" r="39.818" fill="#d2dadd"/><rect y="9.462" width="80" height="61.091" rx="4.609" ry="4.609" fill="url(#a)"/><path d="M30.202 20.973a19 19 0 00-17.554 11.73c-4.015 9.694.588 20.808 10.283 24.824 9.694 4.016 20.809-.588 24.825-10.282a19 19 0 001.446-7.273c-.012-10.488-8.512-18.988-19-18.999zm-17.082 19a17.018 17.018 0 011.479-6.953l8.149 22.326a17.083 17.083 0 01-9.628-15.374zm17.082 17.084c-1.634 0-3.259-.234-4.826-.695l5.126-14.893 5.25 14.385c.035.082.076.16.123.236a17.05 17.05 0 01-5.673.967zm2.354-25.093a34.704 34.704 0 001.956-.162c.92-.11.812-1.462-.109-1.408 0 0-2.767.217-4.553.217-1.678 0-4.499-.217-4.499-.217-.921-.054-1.03 1.353-.108 1.408 0 0 .871.108 1.791.162l2.662 7.292-3.74 11.212-6.22-18.505c1.03-.054 1.955-.162 1.955-.162.92-.11.811-1.462-.11-1.408 0 0-2.766.217-4.552.217-.32 0-.698-.008-1.1-.02a17.079 17.079 0 0125.808-3.215c-.073-.005-.145-.014-.22-.014-1.679 0-2.87 1.462-2.87 3.032 0 1.408.813 2.6 1.678 4.007.65 1.137 1.409 2.6 1.409 4.71 0 1.462-.562 3.158-1.3 5.522l-1.704 5.693-6.174-18.36zm12.636-.186c4.438 8.124 1.6 18.304-6.402 22.96l5.218-15.086c.974-2.437 1.299-4.386 1.299-6.118a13.132 13.132 0 00-.115-1.757v.001zm20.692-10.805c.2 0 .375.066.525.199.15.133.225.299.225.498 0 .18-.064.396-.193.647-.948 1.794-1.612 2.867-1.992 3.218-.277.26-.588.39-.934.39-.36 0-.67-.133-.928-.397a1.297 1.297 0 01-.387-.939c0-.365.131-.668.394-.907l2.733-2.478a.808.808 0 01.557-.231zm-3.894 4.425a1.731 1.731 0 001.101.882l.004.303c.012.608-.173 1.103-.555 1.485-.381.383-.879.574-1.493.574-.351 0-.662-.066-.934-.2a1.701 1.701 0 01-.653-.545 2.542 2.542 0 01-.37-.783 3.43 3.43 0 01-.125-.942l.176.129c.097.071.185.135.265.19s.165.108.253.157a.48.48 0 00.197.072c.117 0 .196-.052.236-.158a2.19 2.19 0 01.246-.482 1.285 1.285 0 01.675-.528c.143-.05.29-.087.441-.11a5.68 5.68 0 01.536-.044zm4.486 12.68c.105.11.158.238.158.388s-.053.279-.158.387l-1.716 1.712.641.642-.684.685a2.687 2.687 0 01-1.667.798 2.589 2.589 0 01-1.761-.43l-1.55 1.55h-.774v-.775l1.55-1.55c-.355-.528-.498-1.114-.43-1.76s.332-1.202.797-1.668l.685-.684.642.642 1.712-1.716a.538.538 0 01.39-.159c.15 0 .279.053.384.159s.159.234.159.387-.053.282-.159.387l-1.711 1.716 1.001 1.002 1.716-1.712a.539.539 0 01.39-.159c.15 0 .28.053.385.159zM62.8 55.142a1.917 1.917 0 100-3.834 1.917 1.917 0 000 3.834zm1.342.48h-.25a2.61 2.61 0 01-2.184 0h-.25a2.014 2.014 0 00-2.014 2.012v.623a.72.72 0 00.72.72h5.272a.72.72 0 00.719-.72v-.623a2.014 2.014 0 00-2.013-2.013z" fill="#fff"/></svg>